<svg width="300" height="302" viewBox="0 0 300 302" fill="none" xmlns="http://www.w3.org/2000/svg">
<g clip-path="url(#clip0_6_55)">
<path d="M211.07 300.646H80.5831C66.4366 300.646 54.9274 289.137 54.9274 274.99V25.6558C54.9274 11.5092 66.4366 0 80.5831 0H211.07C225.217 0 236.726 11.5092 236.726 25.6558V274.99C236.726 289.137 225.217 300.646 211.07 300.646Z" fill="#3F3D56"/>
<path d="M236.726 91.7133C236.127 91.7133 235.641 92.2001 235.641 92.7987V127.53C235.641 128.129 236.127 128.616 236.726 128.616C237.324 128.616 237.811 128.129 237.811 127.53V92.7987C237.811 92.2001 237.324 91.7133 236.726 91.7133Z" fill="#3F3D56"/>
<path d="M234.284 25.656V274.986C234.284 287.299 224.7 297.371 212.582 298.153H212.577C212.398 298.163 212.219 298.174 212.034 298.18C211.714 298.196 211.394 298.201 211.068 298.201C211.068 298.201 209.874 298.115 207.693 297.952C205.489 297.789 202.282 297.545 198.282 297.225C197.083 297.132 195.819 297.029 194.484 296.921C191.825 296.704 188.905 296.465 185.774 296.194C184.525 296.09 183.234 295.977 181.915 295.863C175.175 295.282 167.626 294.604 159.665 293.833C158.319 293.708 156.963 293.578 155.595 293.442C155.237 293.404 154.873 293.372 154.51 293.334C148.833 292.775 142.999 292.172 137.144 291.532C136.78 291.494 136.417 291.456 136.059 291.418C125.97 290.305 115.844 289.095 106.368 287.793C99.0802 286.794 92.1773 285.742 85.9798 284.651C83.961 284.293 82.0182 283.934 80.1623 283.571C79.7987 283.5 79.4351 283.43 79.0769 283.354C65.9603 280.727 57.3696 277.894 57.3696 274.986V25.656C57.3696 12.8324 67.762 2.44006 80.5856 2.44006H94.4457C96.6598 2.44006 98.4398 4.16578 98.6298 6.3745C98.646 6.52104 98.6623 6.66754 98.6894 6.81408C99.091 9.03366 101.126 10.5803 103.384 10.5803H188.27C190.527 10.5803 192.563 9.03365 192.964 6.81408C192.991 6.66754 193.008 6.52104 193.024 6.3745C193.214 4.16578 194.994 2.44006 197.208 2.44006H211.068C223.892 2.44006 234.284 12.8324 234.284 25.656Z" fill="white"/>
<path d="M124.76 252.347C124.841 252.711 124.912 253.069 124.982 253.433H85.8603C83.3314 253.433 81.1824 255.088 80.4389 257.372C80.2924 257.134 80.1404 256.895 79.9939 256.656V256.651C80.0373 256.271 80.0807 255.891 80.1296 255.511C80.9056 249.373 82.4251 243.344 84.6555 237.57C87.8085 238.113 90.8095 235.996 91.3577 232.843C91.6453 231.161 91.1786 229.43 90.0769 228.122L89.8815 226.51L90.0824 226.152C94.3967 218.712 103.926 216.183 111.361 220.497C114.894 222.543 117.482 225.902 118.562 229.842C120.614 237.282 123.164 244.793 124.76 252.347Z" fill="#FAFAFA"/>
<path d="M230.094 191.051L229.997 191.404C227.875 191.974 225.791 192.674 223.761 193.499C222.6 193.976 221.455 194.492 220.326 195.051C216.44 196.994 214.867 201.715 216.815 205.601C217.797 207.57 219.566 209.036 221.688 209.644L221.84 209.687L222.166 209.779C217.683 217.567 211.898 224.529 205.06 230.358C195.211 261.296 169.634 261.133 143.84 248.521L143.824 248.516C141.838 253.943 139.607 259.266 137.144 264.487C136.786 265.241 136.427 265.99 136.058 266.739V259.131C136.058 258.642 135.999 258.165 135.879 257.714C136.096 257.231 136.303 256.748 136.509 256.26C143.135 240.674 147.607 224.204 149.756 207.31C150.586 200.716 151.047 194.085 151.139 187.442C151.21 181.999 151.036 176.562 150.629 171.135C148.372 141.678 139.162 113.176 123.75 87.9688C115.507 82.0264 109.282 73.6963 105.918 64.1071C104.691 60.661 103.975 57.0522 103.785 53.3946C104.767 53.655 109.451 38.791 108.81 37.7653C110.471 35.8279 113.092 35.0899 114.872 33.223C123.718 23.9215 133.909 27.0256 137.594 41.6346C148.469 48.9554 147.362 58.6911 139.059 67.1461C133.779 72.5241 132.14 80.4907 127.365 86.357C127.706 86.9323 128.07 87.4967 128.412 88.0719C134.685 98.6325 139.906 109.779 144.003 121.36C144.209 108.992 147.346 96.8471 153.158 85.9283C158.932 75.7964 168.37 67.8407 176.846 59.516C183.12 53.2643 193.279 53.2806 199.53 59.554C202.531 62.5659 204.214 66.6468 204.214 70.896L204.203 71.3085C203.042 71.786 201.896 72.3016 200.768 72.8605C196.882 74.8033 195.314 79.5301 197.257 83.4103C198.239 85.3802 200.008 86.8509 202.13 87.4532L202.282 87.4967C201.403 91.366 200.236 95.1593 198.782 98.8496C203.601 136.311 181.682 146.98 152.686 143.936C152.002 144.185 151.34 144.435 150.662 144.663C154.2 160.916 155.606 177.566 154.846 194.177C154.368 203.978 153.099 213.725 151.053 223.319L151.145 222.983C154.596 212.46 161.57 203.452 170.893 197.477C184.726 188.756 202.911 187.193 217.477 180.615C221.976 178.466 227.359 180.371 229.508 184.87C230.431 186.797 230.637 188.984 230.094 191.051L230.094 191.051Z" fill="#FAFAFA"/>
<path d="M54.3848 65.6646C53.7862 65.6646 53.2994 66.1513 53.2994 66.7499V75.4328C53.2994 76.0314 53.7862 76.5182 54.3848 76.5182C54.9834 76.5182 55.4702 76.0314 55.4702 75.4328V66.7499C55.4702 66.1513 54.9834 65.6646 54.3848 65.6646Z" fill="#3F3D56"/>
<path d="M54.3848 91.7133C53.7862 91.7133 53.2994 92.2001 53.2994 92.7987V109.622C53.2994 110.22 53.7862 110.707 54.3848 110.707C54.9834 110.707 55.4702 110.22 55.4702 109.622V92.7987C55.4702 92.2001 54.9834 91.7133 54.3848 91.7133Z" fill="#3F3D56"/>
<path d="M54.3848 115.591C53.7862 115.591 53.2994 116.078 53.2994 116.677V133.5C53.2994 134.098 53.7862 134.585 54.3848 134.585C54.9834 134.585 55.4702 134.098 55.4702 133.5V116.677C55.4702 116.078 54.9834 115.591 54.3848 115.591Z" fill="#3F3D56"/>
<path d="M93.1865 6.24091H74.1927C73.5932 6.24091 73.1073 6.72684 73.1073 7.32627V7.86895C73.1073 8.46838 73.5932 8.95431 74.1927 8.95431H93.1865C93.786 8.95431 94.2719 8.46838 94.2719 7.86895V7.32627C94.2719 6.72684 93.786 6.24091 93.1865 6.24091Z" fill="#3F3D56"/>
<path d="M200.638 8.95431C201.836 8.95431 202.808 7.98244 202.808 6.78358C202.808 5.58472 201.836 4.61285 200.638 4.61285C199.439 4.61285 198.467 5.58472 198.467 6.78358C198.467 7.98244 199.439 8.95431 200.638 8.95431Z" fill="#3F3D56"/>
<path d="M206.607 8.95431C207.806 8.95431 208.778 7.98244 208.778 6.78358C208.778 5.58472 207.806 4.61285 206.607 4.61285C205.408 4.61285 204.436 5.58472 204.436 6.78358C204.436 7.98244 205.408 8.95431 206.607 8.95431Z" fill="#3F3D56"/>
<path d="M212.576 8.95431C213.775 8.95431 214.747 7.98244 214.747 6.78358C214.747 5.58472 213.775 4.61285 212.576 4.61285C211.378 4.61285 210.406 5.58472 210.406 6.78358C210.406 7.98244 211.378 8.95431 212.576 8.95431Z" fill="#3F3D56"/>
<path d="M194.668 33.6464H96.9853C94.4417 33.6464 92.3725 31.5771 92.3725 29.0336C92.3725 26.49 94.4417 24.4208 96.9853 24.4208H194.668C197.211 24.4208 199.281 26.49 199.281 29.0336C199.281 31.5771 197.211 33.6464 194.668 33.6464Z" fill="#E6E6E6"/>
<path d="M98.6133 31.2043C97.1172 31.2043 95.8999 29.987 95.8999 28.4909C95.8999 26.9948 97.1172 25.7775 98.6133 25.7775C100.109 25.7775 101.327 26.9948 101.327 28.4909C101.327 29.987 100.109 31.2043 98.6133 31.2043ZM98.6133 26.8628C97.7156 26.8628 96.9853 27.5931 96.9853 28.4909C96.9853 29.3886 97.7156 30.1189 98.6133 30.1189C99.5111 30.1189 100.241 29.3886 100.241 28.4909C100.241 27.5931 99.5111 26.8628 98.6133 26.8628Z" fill="white"/>
<path d="M102.788 33.0483C102.655 33.0483 102.522 32.9998 102.417 32.9015L99.8704 30.5148C99.6515 30.31 99.6404 29.9666 99.8455 29.748C100.05 29.5285 100.393 29.5177 100.612 29.723L103.159 32.1097C103.378 32.3146 103.389 32.658 103.184 32.8766C103.077 32.9908 102.933 33.0483 102.788 33.0483H102.788Z" fill="white"/>
<path d="M98.342 125.36C97.8931 125.36 97.528 125.725 97.528 126.174V126.716C97.528 127.165 97.8931 127.53 98.342 127.53H117.336C117.785 127.53 118.15 127.165 118.15 126.716V126.174C118.15 125.725 117.785 125.36 117.336 125.36H98.342Z" fill="#3F3D56"/>
<path d="M130.36 117.219H85.8603C82.1198 117.219 79.0768 114.176 79.0768 110.436V65.9359C79.0768 62.1954 82.1198 59.1524 85.8603 59.1524H130.36C134.101 59.1524 137.144 62.1954 137.144 65.9359V110.436C137.144 114.176 134.101 117.219 130.36 117.219ZM85.8603 60.2378C82.7133 60.2378 80.1621 62.7889 80.1621 65.9359V110.436C80.1621 113.583 82.7133 116.134 85.8603 116.134H117.031C127.54 116.134 136.058 107.615 136.058 97.107V65.9359C136.058 62.7889 133.507 60.2378 130.36 60.2378H85.8603Z" fill="#F2F2F2"/>
<path d="M92.3725 64.8506C88.9312 64.8506 86.1317 67.6501 86.1317 71.0914V80.8597C86.1317 84.301 88.9312 87.1005 92.3725 87.1005H102.141C105.582 87.1005 108.382 84.301 108.382 80.8597V71.0914C108.382 67.6501 105.582 64.8506 102.141 64.8506H92.3725Z" fill="#F2F2F2"/>
<path d="M117.879 64.8506C114.437 64.8506 111.638 67.6501 111.638 71.0914V80.8597C111.638 84.301 114.437 87.1005 117.879 87.1005H127.647C131.088 87.1005 133.888 84.301 133.888 80.8597V71.0914C133.888 67.6501 131.088 64.8506 127.647 64.8506H117.879Z" fill="#F2F2F2"/>
<path d="M90.4731 89.5426C87.0318 89.5426 84.2323 92.3421 84.2323 95.7834V105.552C84.2323 108.993 87.0318 111.793 90.4731 111.793H100.241C103.683 111.793 106.482 108.993 106.482 105.552V95.7834C106.482 92.3421 103.683 89.5426 100.241 89.5426H90.4731Z" fill="#F2F2F2"/>
<path d="M173.775 125.36C173.326 125.36 172.961 125.725 172.961 126.174V126.716C172.961 127.165 173.326 127.53 173.775 127.53H192.769C193.217 127.53 193.583 127.165 193.583 126.716V126.174C193.583 125.725 193.217 125.36 192.769 125.36H173.775Z" fill="#3F3D56"/>
<path d="M98.342 221.957C97.8931 221.957 97.528 222.322 97.528 222.771V223.314C97.528 223.762 97.8931 224.128 98.342 224.128H117.336C117.785 224.128 118.15 223.762 118.15 223.314V222.771C118.15 222.322 117.785 221.957 117.336 221.957H98.342Z" fill="#3F3D56"/>
<path d="M130.36 213.817H85.8603C82.1198 213.817 79.0768 210.774 79.0768 207.033V162.533C79.0768 158.793 82.1198 155.75 85.8603 155.75H130.36C134.101 155.75 137.144 158.793 137.144 162.533V207.033C137.144 210.774 134.101 213.817 130.36 213.817ZM85.8603 156.835C82.7133 156.835 80.1621 159.386 80.1621 162.533V207.033C80.1621 210.18 82.7133 212.731 85.8603 212.731H117.574C127.783 212.731 136.058 204.456 136.058 194.247V162.533C136.058 159.386 133.507 156.835 130.36 156.835H85.8603Z" fill="#F2F2F2"/>
<path d="M90.4731 161.177C87.0318 161.177 84.2323 163.976 84.2323 167.417V177.186C84.2323 180.627 87.0318 183.427 90.4731 183.427H100.241C103.683 183.427 106.482 180.627 106.482 177.186V167.417C106.482 163.976 103.683 161.177 100.241 161.177H90.4731Z" fill="#F2F2F2"/>
<path d="M115.979 161.177C112.538 161.177 109.738 163.976 109.738 167.417V177.186C109.738 180.627 112.538 183.427 115.979 183.427H125.747C129.189 183.427 131.988 180.627 131.988 177.186V167.417C131.988 163.976 129.189 161.177 125.747 161.177H115.979Z" fill="#F2F2F2"/>
<path d="M90.4731 186.14C87.0318 186.14 84.2323 188.939 84.2323 192.381V202.149C84.2323 205.59 87.0318 208.39 90.4731 208.39H100.241C103.683 208.39 106.482 205.59 106.482 202.149V192.381C106.482 188.939 103.683 186.14 100.241 186.14H90.4731Z" fill="#F2F2F2"/>
<path d="M173.775 221.957C173.326 221.957 172.961 222.322 172.961 222.771V223.314C172.961 223.762 173.326 224.128 173.775 224.128H192.769C193.217 224.128 193.583 223.762 193.583 223.314V222.771C193.583 222.322 193.217 221.957 192.769 221.957H173.775Z" fill="#3F3D56"/>
<path d="M205.793 213.817H161.293C157.553 213.817 154.51 210.774 154.51 207.033V162.533C154.51 158.793 157.553 155.75 161.293 155.75H205.793C209.533 155.75 212.576 158.793 212.576 162.533V207.033C212.576 210.774 209.533 213.817 205.793 213.817ZM161.293 156.835C158.146 156.835 155.595 159.386 155.595 162.533V207.033C155.595 210.18 158.146 212.731 161.293 212.731H193.364C203.375 212.731 211.491 204.615 211.491 194.604V162.533C211.491 159.386 208.94 156.835 205.793 156.835H161.293Z" fill="#F2F2F2"/>
<path d="M165.906 161.177C162.465 161.177 159.665 163.976 159.665 167.417V177.186C159.665 180.627 162.465 183.427 165.906 183.427H175.674C179.115 183.427 181.915 180.627 181.915 177.186V167.417C181.915 163.976 179.115 161.177 175.674 161.177H165.906Z" fill="#F2F2F2"/>
<path d="M191.412 161.177C187.971 161.177 185.171 163.976 185.171 167.417V177.186C185.171 180.627 187.971 183.427 191.412 183.427H201.18C204.621 183.427 207.421 180.627 207.421 177.186V167.417C207.421 163.976 204.621 161.177 201.18 161.177H191.412Z" fill="#F2F2F2"/>
<path d="M165.906 186.14C162.465 186.14 159.665 188.939 159.665 192.381V202.149C159.665 205.59 162.465 208.39 165.906 208.39H175.674C179.115 208.39 181.915 205.59 181.915 202.149V192.381C181.915 188.939 179.115 186.14 175.674 186.14H165.906Z" fill="#F2F2F2"/>
<path d="M137.144 259.128V291.532C136.78 291.494 136.417 291.456 136.058 291.418V259.128C136.058 258.64 135.999 258.162 135.879 257.712C135.25 255.254 133.014 253.43 130.36 253.43H85.8604C83.3315 253.43 81.1825 255.085 80.439 257.37C80.2599 257.924 80.1623 258.515 80.1623 259.128V283.571C79.7987 283.5 79.4351 283.43 79.0769 283.354V259.128C79.0769 257.799 79.4622 256.556 80.1297 255.509C81.3344 253.609 83.4509 252.345 85.8604 252.345H130.36C133.074 252.345 135.418 253.946 136.509 256.258C136.916 257.126 137.144 258.103 137.144 259.128V259.128Z" fill="#F2F2F2"/>
<path d="M100.241 257.774H90.4731C87.0325 257.774 84.2323 260.574 84.2323 264.015V273.783C84.2323 277.224 87.0325 280.024 90.4731 280.024H100.241C103.682 280.024 106.482 277.224 106.482 273.783V264.015C106.482 260.574 103.682 257.774 100.241 257.774Z" fill="#F2F2F2"/>
<path d="M125.747 257.774H115.979C112.539 257.774 109.738 260.574 109.738 264.015V273.783C109.738 277.224 112.539 280.024 115.979 280.024H125.747C129.188 280.024 131.988 277.224 131.988 273.783V264.015C131.988 260.574 129.188 257.774 125.747 257.774Z" fill="#F2F2F2"/>
<path d="M100.242 282.735H90.4732C88.7095 282.735 87.114 283.473 85.9799 284.651C92.1773 285.742 99.0802 286.794 106.368 287.793C105.815 284.917 103.281 282.735 100.242 282.735Z" fill="#F2F2F2"/>
<path d="M212.577 259.128V298.18H211.491V259.128C211.491 255.986 208.935 253.43 205.793 253.43H161.293C158.151 253.43 155.595 255.986 155.595 259.128V293.442C155.237 293.404 154.873 293.372 154.51 293.334V259.128C154.51 255.389 157.554 252.345 161.293 252.345H205.793C209.532 252.345 212.577 255.389 212.577 259.128Z" fill="#F2F2F2"/>
<path d="M175.674 257.774H165.906C162.465 257.774 159.665 260.574 159.665 264.015V273.783C159.665 277.224 162.465 280.024 165.906 280.024H175.674C179.115 280.024 181.915 277.224 181.915 273.783V264.015C181.915 260.574 179.115 257.774 175.674 257.774Z" fill="#F2F2F2"/>
<path d="M201.18 257.774H191.412C187.971 257.774 185.171 260.574 185.171 264.015V273.783C185.171 277.224 187.971 280.024 191.412 280.024H201.18C204.621 280.024 207.421 277.224 207.421 273.783V264.015C207.421 260.574 204.621 257.774 201.18 257.774Z" fill="#F2F2F2"/>
<path d="M175.674 282.735H165.906C162.465 282.735 159.665 285.535 159.665 288.976V293.833C167.626 294.604 175.175 295.282 181.915 295.863V288.976C181.915 285.535 179.115 282.735 175.674 282.735Z" fill="#F2F2F2"/>
<path d="M112.305 186.047C110.836 186.047 109.641 187.242 109.641 188.711V192.88C109.641 194.349 110.836 195.544 112.305 195.544H116.474C117.943 195.544 119.138 194.349 119.138 192.88V188.711C119.138 187.242 117.943 186.047 116.474 186.047H112.305Z" fill="#F2F2F2"/>
<path d="M125.329 186.047C123.86 186.047 122.665 187.242 122.665 188.711V192.88C122.665 194.349 123.86 195.544 125.329 195.544H129.499C130.967 195.544 132.162 194.349 132.162 192.88V188.711C132.162 187.242 130.967 186.047 129.499 186.047H125.329Z" fill="#F2F2F2"/>
<path d="M112.305 90.535C110.836 90.535 109.641 91.73 109.641 93.1988V97.3682C109.641 98.837 110.836 100.032 112.305 100.032H116.474C117.943 100.032 119.138 98.837 119.138 97.3682V93.1988C119.138 91.73 117.943 90.535 116.474 90.535H112.305Z" fill="#F2F2F2"/>
<path d="M125.329 90.535C123.86 90.535 122.665 91.73 122.665 93.1988V97.3682C122.665 98.837 123.86 100.032 125.329 100.032H129.499C130.967 100.032 132.162 98.837 132.162 97.3682V93.1988C132.162 91.73 130.967 90.535 129.499 90.535H125.329Z" fill="#F2F2F2"/>
<path d="M192.003 282.737H187.836C186.365 282.737 185.171 283.931 185.171 285.402V289.57C185.171 291.04 186.365 292.234 187.836 292.234H192.003C193.474 292.234 194.668 291.04 194.668 289.57V285.402C194.668 283.931 193.474 282.737 192.003 282.737Z" fill="#F2F2F2"/>
<path d="M205.028 282.737H200.86C199.389 282.737 198.195 283.931 198.195 285.402V289.57C198.195 291.04 199.389 292.234 200.86 292.234H205.028C206.498 292.234 207.692 291.04 207.692 289.57V285.402C207.692 283.931 206.498 282.737 205.028 282.737Z" fill="#F2F2F2"/>
<path d="M192.004 295.217H187.836C187.005 295.217 186.262 295.597 185.774 296.194C188.905 296.465 191.824 296.704 194.484 296.921C194.104 295.922 193.138 295.217 192.004 295.217Z" fill="#F2F2F2"/>
<path d="M205.028 295.217H200.86C199.617 295.217 198.57 296.069 198.282 297.225C202.282 297.545 205.489 297.789 207.692 297.952V297.881C207.692 296.411 206.499 295.217 205.028 295.217Z" fill="#F2F2F2"/>
<path d="M215.952 65.9596L217.779 75.0702L212.721 76.84L211.132 67.139C210.899 66.9491 210.69 66.7228 210.514 66.4604C209.558 65.0333 209.94 63.1014 211.367 62.1454C212.794 61.1894 214.726 61.5712 215.682 62.9983C216.292 63.9084 216.355 65.023 215.952 65.9596V65.9596Z" fill="#A0616A"/>
<path d="M242.407 125.613L249.811 117.637L226.073 93.355C226.073 93.355 225.103 92.4431 225.759 92.3167C226.414 92.1904 225.423 91.2085 225.423 91.2085C225.423 91.2085 223.877 89.7399 225.117 90.1982C226.357 90.6565 224.785 89.1031 224.785 89.1031L219.225 70.7502L218.239 67.495L209.936 72.4509C209.936 72.4509 210.01 73.0809 210.157 74.1556C210.897 79.5774 213.5 96.3171 217.893 100.571C223.158 105.668 242.407 125.613 242.407 125.613L242.407 125.613Z" fill="#11A887"/>
<path d="M221.515 295.585L216.285 295.584L213.797 275.411L221.516 275.412L221.515 295.585Z" fill="#A0616A"/>
<path d="M221.699 301.041L205.616 301.04V300.837C205.616 297.38 208.419 294.577 211.876 294.577H211.876L214.814 292.348L220.295 294.577L221.699 294.577L221.699 301.041Z" fill="#2F2E41"/>
<path d="M264.182 290.459L259.237 292.159L250.323 273.892L257.622 271.382L264.182 290.459Z" fill="#A0616A"/>
<path d="M266.131 295.558L250.922 300.789L250.856 300.596C249.732 297.327 251.47 293.765 254.74 292.641L254.74 292.64L256.793 289.577L262.701 289.903L264.029 289.446L266.131 295.558Z" fill="#2F2E41"/>
<path d="M254.423 160.588H219.349C219.349 160.588 217.642 175.773 217.009 174.852C216.375 173.93 216.559 175.269 216.739 176.499C216.918 177.728 215.132 178.487 216.296 179.193C217.461 179.899 217.043 181.209 215.895 181.639C214.747 182.07 215.29 185.326 215.29 185.326L209.32 243.619L214.205 287.35H222.345L233.198 207.576V248.277L254.906 284.637L261.961 281.923L253.278 242.85L259.79 170.674L254.423 160.588V160.588Z" fill="#2F2E41"/>
<path d="M260.333 164.704L257.652 167.645L216.918 169.045L215.29 165.247L223.43 146.795L232.113 109.35L235.912 101.21V100.315C235.912 100.19 235.883 100.067 235.827 99.9548C235.594 99.4884 235.858 98.9267 236.366 98.8094L236.455 97.4115L235.369 97.9541L242.424 94.6981L248.231 95.2679L248.394 95.7834L249.604 96.7114C254.645 100.564 257.554 106.583 257.44 112.927L257.076 133.228L260.333 164.704Z" fill="#3F3D56"/>
<path d="M236.596 91.9726C236.838 92.0284 237.08 92.0768 237.322 92.1141C238.075 92.237 238.827 92.2742 239.561 92.2295C241.788 92.1141 243.888 91.2911 245.586 89.9355C247.381 88.5054 248.722 86.4832 249.284 84.0774C250.606 78.3982 247.072 72.7152 241.393 71.3931C235.795 70.086 230.198 73.4972 228.768 79.0313C228.746 79.1169 228.723 79.1989 228.705 79.2845C227.383 84.9675 230.913 90.6468 236.596 91.9726H236.596Z" fill="#A0616A"/>
<path d="M220.549 165.254L225.983 157.716L230.722 160.22L224.693 167.984C224.712 168.284 224.689 168.591 224.616 168.899C224.22 170.57 222.545 171.605 220.873 171.209C219.202 170.814 218.167 169.138 218.563 167.467C218.815 166.401 219.589 165.596 220.549 165.254Z" fill="#A0616A"/>
<path d="M246.27 105.28H235.386L233.741 139.198C233.741 139.198 233.733 140.529 233.194 140.135C232.656 139.741 232.61 141.135 232.61 141.135C232.61 141.135 232.586 143.267 232.078 142.047C231.57 140.826 231.501 143.035 231.501 143.035L221.833 159.596L220.119 162.533L229.4 165.247C229.4 165.247 229.811 164.764 230.499 163.925C233.969 159.694 244.466 146.398 244.595 140.283C244.749 132.957 246.27 105.28 246.27 105.28Z" fill="#11A887"/>
<path d="M232.113 113.149C232.113 113.149 240.796 101.753 248.394 112.607L246.765 98.4968L238.462 96.9675C237.975 96.9153 237.554 97.306 237.571 97.7954L232.113 113.149Z" fill="#3F3D56"/>
<path d="M235.369 101.753L235.342 99.8752L235.092 99.4737L235.369 99.0395L235.413 98.9418L236.454 94.698L245.734 91.442L248.231 95.2679C244.481 97.7967 243.629 101.845 235.369 101.753Z" fill="#11A887"/>
<path d="M244.13 90.4044L243.225 83.6132C243.135 82.9392 242.258 82.736 241.881 83.3017H240.253L238.625 77.8749C238.625 77.8749 238.005 80.3314 236.955 79.7293C235.8 79.0663 234.353 79.3988 233.067 79.7489L233.654 78.1901L231.041 78.9045L231.391 77.7985L229.767 78.3188C230.046 78.1108 229.795 77.6163 229.451 77.563C229.107 77.5096 227.772 78.9603 227.229 78.9603C226.781 78.9603 226.341 78.6014 225.996 78.317C225.08 77.5629 224.623 73.7771 225.058 72.9908C225.865 71.5324 227.697 72.0173 228.857 70.82C229.115 70.5532 231.85 70.5399 232.113 70.2774C232.437 69.9536 234.781 68.7952 235.239 68.7911C235.697 68.7871 236.13 69.3602 235.832 69.7082C236.045 69.0179 236.933 68.8398 237.655 68.8538C238.164 68.8636 239.747 67.5192 240.253 67.564C241.344 67.6603 241.357 69.1459 242.447 69.2423C243.328 69.3201 244.373 69.5112 244.72 70.3245C244.889 70.7218 244.838 71.1726 244.851 71.6043C244.864 72.0361 244.976 72.5176 245.344 72.7442C245.664 72.9417 246.093 72.878 246.416 72.6848C246.739 72.4915 246.979 72.1894 247.212 71.8939C247.564 73.0338 249.545 75.8018 249.897 76.9418C250.253 78.095 250.611 79.2534 250.793 80.4467C251.347 84.0844 247.43 87.9497 244.909 90.63" fill="#2F2E41"/>
<path d="M161.293 59.6951C157.852 59.6951 155.052 62.4946 155.052 65.9359V110.436C155.052 113.877 157.852 116.677 161.293 116.677H205.793C209.234 116.677 212.034 113.877 212.034 110.436V65.9359C212.034 62.4946 209.234 59.6951 205.793 59.6951H161.293Z" fill="#F2F2F2"/>
<path d="M165.906 64.5792C162.465 64.5792 159.665 67.3787 159.665 70.8201V80.5883C159.665 84.0297 162.465 86.8292 165.906 86.8292H175.674C179.115 86.8292 181.915 84.0297 181.915 80.5883V70.8201C181.915 67.3787 179.115 64.5792 175.674 64.5792H165.906Z" fill="#11A887"/>
<path d="M191.412 64.5792C187.971 64.5792 185.171 67.3787 185.171 70.8201V80.5883C185.171 84.0297 187.971 86.8292 191.412 86.8292H201.18C204.621 86.8292 207.421 84.0297 207.421 80.5883V70.8201C207.421 67.3787 204.621 64.5792 201.18 64.5792H191.412Z" fill="#11A887"/>
<path d="M165.906 89.5426C162.465 89.5426 159.665 92.3421 159.665 95.7834V105.552C159.665 108.993 162.465 111.793 165.906 111.793H175.674C179.115 111.793 181.915 108.993 181.915 105.552V95.7834C181.915 92.3421 179.115 89.5426 175.674 89.5426H165.906Z" fill="white"/>
<path d="M187.835 89.5426C186.366 89.5426 185.171 90.7375 185.171 92.2064V96.3758C185.171 97.8446 186.366 99.0395 187.835 99.0395H192.004C193.473 99.0395 194.668 97.8446 194.668 96.3758V92.2064C194.668 90.7375 193.473 89.5426 192.004 89.5426H187.835Z" fill="white"/>
<path d="M200.859 89.5426C199.39 89.5426 198.195 90.7375 198.195 92.2064V96.3758C198.195 97.8446 199.39 99.0395 200.859 99.0395H205.029C206.497 99.0395 207.692 97.8446 207.692 96.3758V92.2064C207.692 90.7375 206.497 89.5426 205.029 89.5426H200.859Z" fill="white"/>
<path d="M187.835 102.024C186.366 102.024 185.171 103.219 185.171 104.688V108.857C185.171 110.326 186.366 111.521 187.835 111.521H192.004C193.473 111.521 194.668 110.326 194.668 108.857V104.688C194.668 103.219 193.473 102.024 192.004 102.024H187.835Z" fill="white"/>
<path d="M200.859 102.024C199.39 102.024 198.195 103.219 198.195 104.688V108.857C198.195 110.326 199.39 111.521 200.859 111.521H205.029C206.497 111.521 207.692 110.326 207.692 108.857V104.688C207.692 103.219 206.497 102.024 205.029 102.024H200.859Z" fill="white"/>
<path d="M270.555 292.332C271.676 292.402 272.295 291.009 271.447 290.197L271.363 289.862C271.374 289.835 271.385 289.808 271.396 289.781C272.53 287.078 276.373 287.096 277.497 289.804C278.495 292.207 279.765 294.614 280.078 297.155C280.218 298.276 280.155 299.419 279.906 300.52C282.244 295.413 283.474 289.836 283.474 284.228C283.474 282.819 283.397 281.41 283.239 280.004C283.11 278.855 282.931 277.712 282.7 276.58C281.448 270.46 278.739 264.631 274.831 259.762C272.952 258.735 271.385 257.13 270.439 255.206C270.099 254.512 269.832 253.765 269.706 253.004C269.92 253.033 270.512 249.776 270.351 249.576C270.649 249.124 271.182 248.9 271.508 248.458C273.126 246.264 275.356 246.647 276.52 249.629C279.007 250.884 279.031 252.965 277.505 254.967C276.534 256.241 276.401 257.964 275.549 259.328C275.637 259.44 275.728 259.548 275.816 259.661C277.422 261.722 278.812 263.937 279.984 266.264C279.653 263.678 280.142 260.562 280.975 258.553C281.924 256.264 283.702 254.337 285.268 252.358C287.149 249.982 291.006 251.019 291.337 254.032C291.341 254.061 291.344 254.09 291.347 254.119C291.114 254.25 290.886 254.39 290.664 254.537C289.394 255.377 289.833 257.345 291.337 257.577L291.371 257.582C291.287 258.42 291.143 259.251 290.933 260.067C292.942 267.836 288.605 270.666 282.412 270.793C282.276 270.863 282.142 270.933 282.006 271C282.633 272.766 283.134 274.578 283.506 276.415C283.839 278.038 284.07 279.678 284.2 281.326C284.361 283.404 284.347 285.493 284.172 287.568L284.182 287.495C284.627 285.209 285.868 283.075 287.67 281.596C290.354 279.391 294.146 278.579 297.041 276.807C298.435 275.954 300.221 277.056 299.978 278.672L299.966 278.749C299.535 278.925 299.114 279.128 298.707 279.356C298.475 279.487 298.247 279.626 298.024 279.774C296.755 280.613 297.194 282.581 298.698 282.814L298.732 282.819C298.757 282.822 298.778 282.826 298.802 282.829C298.062 284.585 297.032 286.215 295.742 287.621C294.486 294.403 289.091 295.046 283.32 293.071H283.317C282.686 295.819 281.764 298.504 280.579 301.063H270.8C270.765 300.954 270.733 300.842 270.702 300.734C271.606 300.79 272.517 300.737 273.408 300.572C272.682 299.682 271.956 298.785 271.231 297.894C271.213 297.877 271.199 297.859 271.185 297.842C270.817 297.386 270.446 296.934 270.078 296.478L270.078 296.478C270.054 295.079 270.222 293.685 270.554 292.332L270.555 292.332Z" fill="#F2F2F2"/>
<path d="M0 301.092C0 301.45 0.287638 301.738 0.645824 301.738H299.278C299.636 301.738 299.924 301.45 299.924 301.092C299.924 300.734 299.636 300.446 299.278 300.446H0.645824C0.287638 300.446 0 300.734 0 301.092Z" fill="#CCCCCC"/>
</g>
<defs>
<clipPath id="clip0_6_55">
<rect width="300" height="301.738" fill="white"/>
</clipPath>
</defs>
</svg>
